<svg width="300" height="300" viewBox="0 0 300 300" fill="none" xmlns="http://www.w3.org/2000/svg">
<g clip-path="url(#clip0_134_24)">
<rect width="300" height="300" rx="66" fill="#2B3C85"/>
<path fill-rule="evenodd" clip-rule="evenodd" d="M138.682 174.158C150.282 174.339 161.997 170.507 171.581 162.465C182.259 153.505 186.321 144.301 188.407 134.855C188.407 134.855 188.407 134.855 188.407 134.855C186.32 144.301 182.259 153.505 171.581 162.465C161.997 170.507 150.281 174.339 138.682 174.158ZM108.803 177.524C108.966 176.257 109.13 174.994 109.303 173.736C129.966 186.302 157.169 185.001 176.723 168.593C187.616 159.453 192.58 149.888 195.212 140.593C196.19 141.58 197.135 142.615 198.044 143.698C215.794 164.851 213.035 196.389 191.881 214.139C168.251 233.968 136.046 226.15 110.368 219.917L110.368 219.917C104.414 218.472 98.8113 217.111 93.7476 216.201C105.524 202.911 107.189 190.017 108.803 177.524Z" fill="white" fill-opacity="0.5"/>
<path d="M205.436 83.7991C180.628 111.795 200.691 138.039 171.581 162.465C150.427 180.215 118.889 177.456 101.139 156.302C83.3893 135.148 86.1485 103.611 107.302 85.8606C136.412 61.4347 178.532 78.961 205.436 83.7991Z" fill="white"/>
</g>
<defs>
<clipPath id="clip0_134_24">
<rect width="300" height="300" fill="white"/>
</clipPath>
</defs>
</svg>
