<svg width="424" height="139" viewBox="0 0 424 139" fill="none" xmlns="http://www.w3.org/2000/svg">
<path d="M188.632 95.9207C193.168 95.9207 196.598 94.925 198.811 93.0443C201.023 91.1635 202.129 88.7297 202.129 85.7426C202.129 83.0874 201.245 80.9854 199.585 79.4365C197.926 77.8877 195.27 76.4494 191.62 75.3431L183.433 72.7985C180.888 72.0241 178.565 71.0284 176.463 70.0327C174.361 68.9264 172.591 67.7095 171.153 66.2713C169.714 64.8331 168.608 63.1735 167.834 61.2928C167.059 59.412 166.727 57.0888 166.727 54.5443C166.727 48.7914 168.829 44.2555 173.144 40.9365C177.348 37.6175 183.211 35.9581 190.402 35.9581C193.389 35.9581 196.155 36.1793 198.7 36.6218C201.244 37.0644 203.457 37.7282 205.338 38.6132C207.219 39.4983 208.657 40.3833 209.763 41.6003C210.869 42.7066 211.312 43.9236 211.312 45.2511C211.312 46.4681 210.98 47.5744 210.427 48.4595C209.763 49.3445 209.099 50.1189 208.214 50.6721C206.444 49.3445 204.01 48.1276 201.023 47.1319C198.036 46.1362 194.828 45.6937 191.288 45.6937C187.305 45.6937 184.207 46.4681 181.995 48.1276C179.782 49.6765 178.675 51.8891 178.675 54.5443C178.675 56.7569 179.45 58.527 180.999 59.8546C182.548 61.1822 185.092 62.3991 188.522 63.3948L194.828 65.2755C200.913 67.0457 205.67 69.5902 209.099 72.7985C212.529 76.0069 214.189 80.3216 214.189 85.7426C214.189 88.619 213.635 91.2742 212.529 93.8187C211.423 96.3632 209.763 98.3546 207.661 100.125C205.559 101.895 202.904 103.222 199.695 104.218C196.487 105.214 192.947 105.656 188.964 105.656C185.646 105.656 182.548 105.324 179.782 104.771C177.016 104.218 174.582 103.444 172.591 102.448C170.599 101.452 169.05 100.457 167.944 99.1291C166.838 97.9121 166.285 96.5845 166.285 95.1463C166.285 93.7081 166.727 92.4911 167.612 91.3848C168.497 90.3891 169.493 89.6147 170.71 89.0615C172.48 90.6104 174.804 92.1592 177.901 93.5975C180.778 95.2569 184.428 95.9207 188.632 95.9207Z" fill="black"/>
<path d="M240.078 94.5959C241.627 95.7022 243.729 96.2554 246.495 96.2554C247.712 96.2554 249.04 96.0341 250.478 95.7022C251.805 95.3703 253.022 94.9278 254.129 94.3747C254.682 94.9278 255.124 95.5916 255.456 96.3661C255.899 97.1405 256.009 97.9149 256.009 99.0212C256.009 100.902 255.014 102.451 253.133 103.668C251.142 104.885 248.265 105.548 244.282 105.548C238.861 105.548 234.436 104.332 231.228 101.898C228.019 99.4638 226.36 95.481 226.36 89.8387V38.8372C226.913 38.7266 227.577 38.5054 228.573 38.2841C229.568 38.0629 230.564 37.9522 231.67 37.9522C233.772 37.9522 235.321 38.3947 236.317 39.1691C237.313 39.9435 237.755 41.2712 237.755 43.2625V54.1045H254.682C255.013 54.5471 255.235 55.2108 255.456 55.9853C255.677 56.7597 255.788 57.6447 255.788 58.5298C255.788 61.6275 254.46 63.1764 251.695 63.1764H237.644V89.1749C237.755 91.7195 238.53 93.4896 240.078 94.5959Z" fill="black"/>
<path d="M275.145 84.3028C276.141 88.5068 278.132 91.4939 281.12 93.4853C284.107 95.4767 287.868 96.4723 292.404 96.4723C295.502 96.4723 298.268 96.0298 300.812 95.0341C303.357 94.0384 305.348 93.0428 306.897 91.9364C308.888 93.1534 309.994 94.7023 309.994 96.8043C309.994 98.0212 309.552 99.2382 308.556 100.234C307.561 101.34 306.344 102.225 304.684 103C303.025 103.774 301.144 104.327 298.931 104.77C296.719 105.212 294.285 105.434 291.74 105.434C287.536 105.434 283.664 104.88 280.235 103.663C276.805 102.446 273.818 100.787 271.384 98.4637C268.95 96.1404 266.959 93.264 265.631 89.8344C264.303 86.4048 263.64 82.422 263.64 77.8861C263.64 73.5714 264.303 69.6994 265.631 66.3804C266.959 63.0614 268.729 60.2956 270.941 58.083C273.154 55.8703 275.809 54.2108 278.907 52.9938C282.004 51.7769 285.213 51.2238 288.753 51.2238C292.293 51.2238 295.391 51.7769 298.267 52.8833C301.144 53.9896 303.578 55.5384 305.68 57.5298C307.782 59.5212 309.331 61.9551 310.437 64.7209C311.543 67.4867 312.096 70.4738 312.096 73.7927C312.096 75.5629 311.654 76.8905 310.769 77.7755C309.884 78.6606 308.667 79.2138 306.897 79.435L275.145 84.3028ZM288.753 60.1849C284.77 60.1849 281.452 61.5126 278.796 64.2784C276.141 66.9335 274.703 70.8057 274.592 75.8948L301.476 72.0226C301.144 68.7036 300.038 65.9378 297.825 63.7252C295.723 61.4019 292.625 60.1849 288.753 60.1849Z" fill="black"/>
<path d="M335.22 103.777C334.667 103.998 334.003 104.219 333.118 104.33C332.233 104.551 331.237 104.551 330.131 104.551C328.029 104.551 326.48 104.109 325.484 103.334C324.489 102.56 323.935 101.232 323.935 99.2409V63.3961C323.935 61.626 324.267 60.0771 325.042 58.9708C325.816 57.8645 326.923 56.7581 328.582 55.7624C330.684 54.4349 333.339 53.3286 336.658 52.4435C339.977 51.5585 343.517 51.1159 347.5 51.1159C353.917 51.1159 357.125 52.8861 357.125 56.5369C357.125 57.422 357.014 58.1964 356.682 58.9708C356.351 59.7452 356.019 60.409 355.687 60.9622C354.912 60.8515 354.027 60.6303 352.921 60.5196C351.815 60.409 350.709 60.2984 349.381 60.2984C346.505 60.2984 343.849 60.6303 341.415 61.1835C338.982 61.8473 336.99 62.6217 335.33 63.5067V103.777H335.22Z" fill="black"/>
<path d="M377.15 103.777C376.597 103.998 375.933 104.219 375.048 104.33C374.163 104.551 373.168 104.551 372.061 104.551C369.959 104.551 368.41 104.109 367.415 103.334C366.419 102.56 365.866 101.232 365.866 99.2409V63.3961C365.866 61.626 366.198 60.0771 366.972 58.9708C367.747 57.8645 368.853 56.7581 370.512 55.7624C372.614 54.4349 375.27 53.3286 378.588 52.4435C381.907 51.5585 385.448 51.1159 389.431 51.1159C395.847 51.1159 399.056 52.8861 399.056 56.5369C399.056 57.422 398.945 58.1964 398.613 58.9708C398.281 59.7452 397.949 60.409 397.617 60.9622C396.843 60.8515 395.958 60.6303 394.851 60.5196C393.745 60.409 392.639 60.2984 391.311 60.2984C388.435 60.2984 385.78 60.6303 383.346 61.1835C380.912 61.8473 378.92 62.6217 377.261 63.5067V103.777H377.15Z" fill="black"/>
<path d="M420.299 103.778C419.746 103.999 419.082 104.22 418.197 104.331C417.312 104.552 416.205 104.552 415.099 104.552C412.997 104.552 411.448 104.11 410.453 103.335C409.457 102.561 408.904 101.233 408.904 99.2419V53.1083C409.457 52.9977 410.231 52.7765 411.116 52.5552C412.002 52.3339 413.108 52.2232 414.214 52.2232C416.316 52.2232 417.865 52.6658 418.861 53.4402C419.857 54.2146 420.299 55.6529 420.299 57.6443V103.778Z" fill="black"/>
<path d="M423.059 34.2997C419.74 38.0612 422.396 41.6014 418.524 44.8098C415.647 47.2437 411.443 46.8012 409.12 44.0354C406.686 41.1589 407.128 36.9549 409.894 34.6316C413.766 31.3127 419.408 33.636 423.059 34.2997Z" fill="black"/>
<path fill-rule="evenodd" clip-rule="evenodd" d="M17.6327 94.3458C17.7632 93.171 17.8938 91.9961 18.0243 90.9518C36.6912 102.309 61.3629 101.134 78.9855 86.2525C88.7758 78.0286 93.3446 69.2827 95.6943 60.9283C96.6081 61.842 97.3911 62.7558 98.3048 63.8001C114.361 82.9891 111.881 111.446 92.6918 127.502C71.2836 145.386 42.1738 138.337 18.9382 132.724C13.5861 131.419 8.49524 130.244 3.92642 129.33C14.6305 117.32 16.1968 105.703 17.6327 94.3458Z" fill="#939CBE"/>
<path d="M104.963 9.62929C82.5102 34.9536 100.655 58.7114 74.2863 80.7722C55.0973 96.8283 26.6404 94.3481 10.5843 75.1591C-5.47182 55.9701 -2.9917 27.5129 16.1973 11.4568C42.5659 -10.604 80.6827 5.19101 104.963 9.62929Z" fill="#273A7E"/>
</svg>
