<svg width="300" height="300" viewBox="0 0 300 300" fill="none" xmlns="http://www.w3.org/2000/svg">
<rect y="0.00012207" width="300" height="300" fill="#2B3C85"/>
<path d="M70.8078 80.2476C125.808 95.7476 159.692 78.8988 191.808 88.7476C229.308 100.248 243.841 144.248 222.06 186.683C202.336 225.112 136.917 227.353 99.8077 205.248C59.8077 181.42 80.1613 121.971 70.8078 80.2476Z" fill="white"/>
<path fill-rule="evenodd" clip-rule="evenodd" d="M113.32 126C110.934 126 109 127.934 109 130.32C109 132.706 110.934 134.64 113.32 134.64H185.68C188.066 134.64 190 132.706 190 130.32C190 127.934 188.066 126 185.68 126H113.32ZM113.32 146.16C110.934 146.16 109 148.094 109 150.48C109 152.866 110.934 154.8 113.32 154.8H185.68C188.066 154.8 190 152.866 190 150.48C190 148.094 188.066 146.16 185.68 146.16H113.32ZM109 169.68C109 167.294 110.934 165.36 113.32 165.36H158.222C160.608 165.36 162.542 167.294 162.542 169.68C162.542 172.066 160.608 174 158.222 174H113.32C110.934 174 109 172.066 109 169.68ZM177.845 165.36C175.46 165.36 173.525 167.294 173.525 169.68C173.525 172.066 175.46 174 177.845 174H181.561C183.947 174 185.881 172.066 185.881 169.68C185.881 167.294 183.947 165.36 181.561 165.36H177.845Z" fill="#959EC2"/>
</svg>
