<?xml version="1.0" encoding="UTF-8"?>
<svg id="_레이어_2" data-name="레이어 2" xmlns="http://www.w3.org/2000/svg" viewBox="0 0 393.01 40.35">
  <defs>
    <style>
      .cls-1 {
        fill: #ec6b36;
      }

      .cls-2 {
        fill: #50535d;
      }
    </style>
  </defs>
  <g id="_레이어_1-2" data-name="레이어 1">
    <g>
      <path class="cls-1" d="M188.51,7.1c0,.68-.19,1.28-.57,1.8-.38,.52-.83,.9-1.35,1.14-1.04-.68-2.24-1.32-3.58-1.92-1.34-.6-3.04-.9-5.08-.9-1.76,0-3.38,.3-4.84,.9-1.46,.6-2.73,1.48-3.79,2.64-1.06,1.16-1.89,2.61-2.49,4.33-.6,1.72-.9,3.71-.9,5.95,0,4.53,1.12,7.96,3.37,10.28,2.24,2.32,5.21,3.49,8.9,3.49,1.96,0,3.67-.28,5.11-.84,1.44-.56,2.68-1.2,3.73-1.92,.44,.28,.85,.68,1.23,1.2,.38,.52,.57,1.12,.57,1.8,0,.56-.15,1.08-.45,1.56-.3,.48-.79,.92-1.47,1.32-.88,.56-2.08,1.06-3.61,1.5-1.52,.44-3.45,.66-5.77,.66-2.57,0-4.95-.39-7.15-1.17s-4.13-1.96-5.77-3.55c-1.64-1.58-2.94-3.57-3.88-5.95-.94-2.38-1.41-5.18-1.41-8.39s.48-5.89,1.44-8.3,2.26-4.41,3.88-6.01c1.62-1.6,3.52-2.82,5.68-3.64,2.16-.82,4.47-1.23,6.91-1.23,1.72,0,3.28,.15,4.66,.45,1.38,.3,2.56,.69,3.55,1.17,.98,.48,1.74,1.04,2.28,1.68,.54,.64,.81,1.28,.81,1.92Z"/>
      <path class="cls-1" d="M221.21,25.2c0,2.28-.34,4.35-1.02,6.19-.68,1.84-1.63,3.41-2.86,4.69-1.22,1.28-2.72,2.27-4.48,2.98s-3.73,1.05-5.89,1.05-4.13-.35-5.89-1.05c-1.76-.7-3.26-1.69-4.48-2.98-1.22-1.28-2.17-2.85-2.86-4.69-.68-1.84-1.02-3.91-1.02-6.19s.34-4.35,1.02-6.19c.68-1.84,1.64-3.41,2.89-4.69,1.24-1.28,2.74-2.27,4.51-2.98,1.76-.7,3.71-1.05,5.83-1.05s4.07,.35,5.83,1.05c1.76,.7,3.27,1.7,4.51,3.01,1.24,1.3,2.2,2.87,2.89,4.69,.68,1.82,1.02,3.88,1.02,6.16Zm-14.25-9.86c-2.4,0-4.31,.86-5.71,2.58-1.4,1.72-2.1,4.15-2.1,7.27s.68,5.54,2.04,7.24c1.36,1.7,3.29,2.55,5.77,2.55s4.41-.85,5.77-2.55c1.36-1.7,2.04-4.12,2.04-7.24s-.69-5.5-2.07-7.24c-1.38-1.74-3.3-2.61-5.74-2.61Z"/>
      <path class="cls-1" d="M245.35,16.72c-1.1-.92-2.6-1.38-4.48-1.38-1.4,0-2.66,.18-3.76,.54s-2.05,.76-2.86,1.2v22.06c-.28,.12-.67,.23-1.17,.33-.5,.1-1.05,.15-1.65,.15-1.16,0-2.02-.22-2.59-.66-.56-.44-.84-1.18-.84-2.22V16.9c0-.92,.18-1.66,.54-2.22,.36-.56,.96-1.12,1.8-1.68,1.12-.68,2.58-1.3,4.39-1.86,1.8-.56,3.85-.84,6.13-.84,3.89,0,6.93,.87,9.14,2.62,2.2,1.74,3.31,4.38,3.31,7.9v18.33c-.28,.12-.68,.23-1.2,.33-.52,.1-1.08,.15-1.68,.15-1.16,0-2.02-.22-2.58-.66-.56-.44-.84-1.18-.84-2.22v-15.69c0-1.96-.55-3.41-1.65-4.33Z"/>
      <path class="cls-1" d="M269.18,34.1c.84,.6,2.02,.9,3.55,.9,.68,0,1.4-.1,2.16-.3,.76-.2,1.42-.44,1.98-.72,.28,.32,.53,.68,.75,1.08,.22,.4,.33,.88,.33,1.44,0,1.04-.53,1.9-1.59,2.58s-2.67,1.02-4.84,1.02c-3.01,0-5.4-.67-7.18-2.01-1.78-1.34-2.67-3.56-2.67-6.64V3.38c.28-.08,.68-.18,1.2-.3,.52-.12,1.08-.18,1.68-.18,1.16,0,2.01,.22,2.55,.66,.54,.44,.81,1.18,.81,2.22v5.95h9.32c.16,.24,.31,.58,.45,1.02,.14,.44,.21,.9,.21,1.38,0,1.72-.74,2.58-2.22,2.58h-7.75v14.31c0,1.44,.42,2.46,1.26,3.07Z"/>
      <path class="cls-1" d="M288.54,28.38c.56,2.28,1.65,3.98,3.28,5.08,1.62,1.1,3.7,1.65,6.22,1.65,1.68,0,3.23-.26,4.63-.78,1.4-.52,2.52-1.08,3.37-1.68,1.12,.64,1.68,1.54,1.68,2.7,0,.68-.26,1.31-.78,1.89-.52,.58-1.23,1.08-2.13,1.5-.9,.42-1.96,.75-3.19,.99-1.22,.24-2.53,.36-3.94,.36-2.32,0-4.44-.32-6.34-.96-1.9-.64-3.54-1.6-4.9-2.89-1.36-1.28-2.41-2.86-3.16-4.75-.74-1.88-1.11-4.07-1.11-6.55s.36-4.52,1.08-6.34c.72-1.82,1.7-3.35,2.95-4.57,1.24-1.22,2.71-2.15,4.39-2.8,1.68-.64,3.49-.96,5.41-.96s3.68,.31,5.26,.93c1.58,.62,2.95,1.48,4.09,2.58,1.14,1.1,2.02,2.41,2.64,3.94,.62,1.52,.93,3.19,.93,4.99,0,1-.24,1.73-.72,2.19-.48,.46-1.18,.77-2.1,.93l-17.55,2.52Zm7.45-13.22c-2.21,0-4.04,.74-5.5,2.22-1.46,1.48-2.23,3.61-2.31,6.37l14.79-2.1c-.16-1.8-.82-3.34-1.98-4.6-1.16-1.26-2.83-1.89-4.99-1.89Z"/>
      <path class="cls-1" d="M332.69,16.72c-1.1-.92-2.6-1.38-4.48-1.38-1.4,0-2.66,.18-3.76,.54-1.1,.36-2.05,.76-2.86,1.2v22.06c-.28,.12-.67,.23-1.17,.33-.5,.1-1.05,.15-1.65,.15-1.16,0-2.02-.22-2.58-.66-.56-.44-.84-1.18-.84-2.22V16.9c0-.92,.18-1.66,.54-2.22,.36-.56,.96-1.12,1.8-1.68,1.12-.68,2.59-1.3,4.39-1.86,1.8-.56,3.85-.84,6.13-.84,3.89,0,6.93,.87,9.14,2.62,2.2,1.74,3.31,4.38,3.31,7.9v18.33c-.28,.12-.68,.23-1.2,.33-.52,.1-1.08,.15-1.68,.15-1.16,0-2.02-.22-2.58-.66-.56-.44-.84-1.18-.84-2.22v-15.69c0-1.96-.55-3.41-1.65-4.33Z"/>
      <path class="cls-1" d="M356.53,34.1c.84,.6,2.02,.9,3.55,.9,.68,0,1.4-.1,2.16-.3,.76-.2,1.42-.44,1.98-.72,.28,.32,.53,.68,.75,1.08,.22,.4,.33,.88,.33,1.44,0,1.04-.53,1.9-1.59,2.58s-2.67,1.02-4.84,1.02c-3.01,0-5.4-.67-7.18-2.01-1.78-1.34-2.67-3.56-2.67-6.64V3.38c.28-.08,.68-.18,1.2-.3,.52-.12,1.08-.18,1.68-.18,1.16,0,2.01,.22,2.55,.66,.54,.44,.81,1.18,.81,2.22v5.95h9.32c.16,.24,.31,.58,.45,1.02,.14,.44,.21,.9,.21,1.38,0,1.72-.74,2.58-2.22,2.58h-7.75v14.31c0,1.44,.42,2.46,1.26,3.07Z"/>
      <path class="cls-1" d="M393.01,31.51c0,2.69-1,4.79-3.01,6.31-2,1.52-4.91,2.28-8.72,2.28-1.56,0-3.01-.12-4.33-.36-1.32-.24-2.46-.58-3.4-1.02-.94-.44-1.67-.96-2.19-1.56-.52-.6-.78-1.26-.78-1.98,0-.6,.15-1.16,.45-1.68,.3-.52,.71-.94,1.23-1.26,1.12,.72,2.4,1.38,3.85,1.98,1.44,.6,3.13,.9,5.05,.9,1.8,0,3.19-.31,4.15-.93,.96-.62,1.44-1.51,1.44-2.67,0-1-.33-1.8-.99-2.4-.66-.6-1.63-1.06-2.92-1.38l-4.09-1.08c-2.73-.72-4.73-1.7-6.01-2.95-1.28-1.24-1.92-2.95-1.92-5.11,0-1.16,.24-2.25,.72-3.28s1.19-1.9,2.13-2.65c.94-.74,2.11-1.32,3.52-1.74,1.4-.42,3-.63,4.81-.63,1.44,0,2.75,.11,3.94,.33,1.18,.22,2.2,.52,3.07,.9,.86,.38,1.53,.85,2.01,1.41,.48,.56,.72,1.16,.72,1.8s-.14,1.19-.42,1.65c-.28,.46-.64,.83-1.08,1.11-.72-.44-1.79-.92-3.22-1.44-1.42-.52-2.96-.78-4.6-.78s-3.01,.29-3.97,.87c-.96,.58-1.44,1.39-1.44,2.43,0,.8,.27,1.46,.81,1.98,.54,.52,1.47,.94,2.79,1.26l3.49,.9c3.05,.8,5.29,1.88,6.73,3.25,1.44,1.36,2.16,3.21,2.16,5.53Z"/>
    </g>
    <g>
      <path class="cls-2" d="M12.35,34.97c2.51,0,4.4-.55,5.63-1.59,1.22-1.04,1.83-2.39,1.83-4.04,0-1.47-.49-2.63-1.41-3.49-.92-.86-2.39-1.65-4.4-2.26l-4.53-1.41c-1.41-.43-2.69-.98-3.85-1.53-1.16-.61-2.14-1.28-2.94-2.08-.79-.79-1.41-1.71-1.83-2.75-.43-1.04-.61-2.32-.61-3.73C.24,8.91,1.41,6.41,3.79,4.57c2.32-1.83,5.57-2.75,9.54-2.75,1.65,0,3.18,.12,4.59,.37,1.41,.24,2.63,.61,3.67,1.1,1.04,.49,1.83,.98,2.45,1.65,.61,.61,.86,1.28,.86,2.02,0,.67-.18,1.28-.49,1.77-.37,.49-.73,.92-1.22,1.22-.98-.73-2.32-1.41-3.98-1.96-1.65-.55-3.43-.79-5.38-.79-2.2,0-3.91,.43-5.14,1.35-1.22,.86-1.83,2.08-1.83,3.55,0,1.22,.43,2.2,1.28,2.94,.86,.73,2.26,1.41,4.16,1.96l3.49,1.04c3.36,.98,5.99,2.39,7.89,4.16,1.9,1.77,2.81,4.16,2.81,7.16,0,1.59-.31,3.06-.92,4.46-.61,1.41-1.53,2.51-2.69,3.49-1.16,.98-2.63,1.71-4.4,2.26-1.77,.55-3.73,.79-5.93,.79-1.83,0-3.55-.18-5.08-.49s-2.87-.73-3.98-1.28c-1.1-.55-1.96-1.1-2.57-1.83-.61-.67-.92-1.41-.92-2.2s.24-1.47,.73-2.08c.49-.55,1.04-.98,1.71-1.28,.98,.86,2.26,1.71,3.98,2.51,1.59,.92,3.61,1.28,5.93,1.28Z"/>
      <path class="cls-2" d="M40.79,34.23c.86,.61,2.02,.92,3.55,.92,.67,0,1.41-.12,2.2-.31,.73-.18,1.41-.43,2.02-.73,.31,.31,.55,.67,.73,1.1,.24,.43,.31,.86,.31,1.47,0,1.04-.55,1.9-1.59,2.57-1.1,.67-2.69,1.04-4.89,1.04-3,0-5.44-.67-7.22-2.02-1.77-1.35-2.69-3.55-2.69-6.67V3.41c.31-.06,.67-.18,1.22-.31,.55-.12,1.1-.18,1.71-.18,1.16,0,2.02,.24,2.57,.67,.55,.43,.79,1.16,.79,2.26v5.99h9.36c.18,.24,.31,.61,.43,1.04,.12,.43,.18,.92,.18,1.41,0,1.71-.73,2.57-2.26,2.57h-7.77v14.37c.06,1.41,.49,2.39,1.35,3Z"/>
      <path class="cls-2" d="M60.18,28.54c.55,2.32,1.65,3.98,3.3,5.08,1.65,1.1,3.73,1.65,6.24,1.65,1.71,0,3.24-.24,4.65-.79,1.41-.55,2.51-1.1,3.36-1.71,1.1,.67,1.71,1.53,1.71,2.69,0,.67-.24,1.35-.79,1.9-.55,.61-1.22,1.1-2.14,1.53-.92,.43-1.96,.73-3.18,.98-1.22,.24-2.57,.37-3.98,.37-2.32,0-4.46-.31-6.36-.98-1.9-.67-3.55-1.59-4.89-2.87s-2.45-2.87-3.18-4.77c-.73-1.9-1.1-4.1-1.1-6.6s.37-4.53,1.1-6.36c.73-1.83,1.71-3.36,2.94-4.59,1.22-1.22,2.69-2.14,4.4-2.81,1.71-.67,3.49-.98,5.44-.98s3.67,.31,5.26,.92c1.59,.61,2.94,1.47,4.1,2.57,1.16,1.1,2.02,2.45,2.63,3.98,.61,1.53,.92,3.18,.92,5.01,0,.98-.24,1.71-.73,2.2-.49,.49-1.16,.79-2.14,.92l-17.55,2.69Zm7.52-13.33c-2.2,0-4.04,.73-5.5,2.26-1.47,1.47-2.26,3.61-2.32,6.42l14.86-2.14c-.18-1.83-.79-3.36-2.02-4.59-1.16-1.28-2.87-1.96-5.01-1.96Z"/>
      <path class="cls-2" d="M93.39,39.31c-.31,.12-.67,.24-1.16,.31-.49,.12-1.04,.12-1.65,.12-1.16,0-2.02-.24-2.57-.67-.55-.43-.86-1.16-.86-2.26V16.99c0-.98,.18-1.83,.61-2.45,.43-.61,1.04-1.22,1.96-1.77,1.16-.73,2.63-1.35,4.46-1.83,1.83-.49,3.79-.73,5.99-.73,3.55,0,5.32,.98,5.32,3,0,.49-.06,.92-.24,1.35-.18,.43-.37,.8-.55,1.1-.43-.06-.92-.18-1.53-.24-.61-.06-1.22-.12-1.96-.12-1.59,0-3.06,.18-4.4,.49-1.35,.37-2.45,.79-3.36,1.28v22.26h-.06Z"/>
      <path class="cls-2" d="M116.56,39.31c-.31,.12-.67,.24-1.16,.31-.49,.12-1.04,.12-1.65,.12-1.16,0-2.02-.24-2.57-.67-.55-.43-.86-1.16-.86-2.26V16.99c0-.98,.18-1.83,.61-2.45,.43-.61,1.04-1.22,1.96-1.77,1.16-.73,2.63-1.35,4.46-1.83,1.83-.49,3.79-.73,5.99-.73,3.55,0,5.32,.98,5.32,3,0,.49-.06,.92-.24,1.35-.18,.43-.37,.8-.55,1.1-.43-.06-.92-.18-1.53-.24-.61-.06-1.22-.12-1.96-.12-1.59,0-3.06,.18-4.4,.49-1.35,.37-2.45,.79-3.36,1.28v22.26h-.06Z"/>
      <path class="cls-2" d="M140.42,39.31c-.31,.12-.67,.24-1.16,.31-.49,.12-1.1,.12-1.71,.12-1.16,0-2.02-.24-2.57-.67-.55-.43-.86-1.16-.86-2.26V11.3c.31-.06,.73-.18,1.22-.31,.49-.12,1.1-.18,1.71-.18,1.16,0,2.02,.24,2.57,.67,.55,.43,.79,1.22,.79,2.32v25.5Z"/>
      <path class="cls-2" d="M141.65,.78c-1.83,2.08-.37,4.04-2.51,5.81-1.59,1.35-3.91,1.1-5.2-.43-1.35-1.59-1.1-3.91,.43-5.2,2.14-1.83,5.26-.55,7.28-.18Z"/>
    </g>
  </g>
</svg>